<svg width="24" height="24" viewBox="0 0 24 24" fill="none" xmlns="http://www.w3.org/2000/svg">
<path d="M12.925 11.9998L9.025 8.0998C8.84167 7.91647 8.75 7.68314 8.75 7.3998C8.75 7.11647 8.84167 6.88314 9.025 6.6998C9.20833 6.51647 9.44167 6.4248 9.725 6.4248C10.0083 6.4248 10.2417 6.51647 10.425 6.6998L15.025 11.2998C15.125 11.3998 15.1958 11.5081 15.2375 11.6248C15.2792 11.7415 15.3 11.8665 15.3 11.9998C15.3 12.1331 15.2792 12.2581 15.2375 12.3748C15.1958 12.4915 15.125 12.5998 15.025 12.6998L10.425 17.2998C10.2417 17.4831 10.0083 17.5748 9.725 17.5748C9.44167 17.5748 9.20833 17.4831 9.025 17.2998C8.84167 17.1165 8.75 16.8831 8.75 16.5998C8.75 16.3165 8.84167 16.0831 9.025 15.8998L12.925 11.9998Z" fill="#E8EAED"/>
</svg>
