<svg width="24" height="24" viewBox="0 0 24 24" fill="none" xmlns="http://www.w3.org/2000/svg">
<path d="M12 11.1197L8.10005 15.0197C7.91672 15.2031 7.68338 15.2947 7.40005 15.2947C7.11672 15.2947 6.88338 15.2031 6.70005 15.0197C6.51672 14.8364 6.42505 14.6031 6.42505 14.3197C6.42505 14.0364 6.51672 13.8031 6.70005 13.6197L11.3 9.01973C11.5 8.81973 11.7334 8.71973 12 8.71973C12.2667 8.71973 12.5 8.81973 12.7 9.01973L17.3 13.6197C17.4834 13.8031 17.575 14.0364 17.575 14.3197C17.575 14.6031 17.4834 14.8364 17.3 15.0197C17.1167 15.2031 16.8834 15.2947 16.6 15.2947C16.3167 15.2947 16.0834 15.2031 15.9 15.0197L12 11.1197Z" fill="#E8EAED"/>
</svg>
