<svg width="24" height="24" viewBox="0 0 24 24" fill="none" xmlns="http://www.w3.org/2000/svg">
<path d="M11.125 11.9998L15.025 15.8998C15.2083 16.0831 15.3 16.3165 15.3 16.5998C15.3 16.8831 15.2083 17.1165 15.025 17.2998C14.8417 17.4831 14.6083 17.5748 14.325 17.5748C14.0417 17.5748 13.8083 17.4831 13.625 17.2998L9.025 12.6998C8.925 12.5998 8.85417 12.4915 8.8125 12.3748C8.77083 12.2581 8.75 12.1331 8.75 11.9998C8.75 11.8665 8.77083 11.7415 8.8125 11.6248C8.85417 11.5081 8.925 11.3998 9.025 11.2998L13.625 6.6998C13.8083 6.51647 14.0417 6.4248 14.325 6.4248C14.6083 6.4248 14.8417 6.51647 15.025 6.6998C15.2083 6.88314 15.3 7.11647 15.3 7.3998C15.3 7.68314 15.2083 7.91647 15.025 8.0998L11.125 11.9998Z" fill="#E8EAED"/>
</svg>
