<svg width="24" height="24" viewBox="0 0 24 24" fill="none" xmlns="http://www.w3.org/2000/svg">
<path d="M12 15.2697C11.8667 15.2697 11.7417 15.2489 11.625 15.2072C11.5084 15.1656 11.4 15.0947 11.3 14.9947L6.70005 10.3947C6.51672 10.2114 6.42505 9.97806 6.42505 9.69473C6.42505 9.41139 6.51672 9.17806 6.70005 8.99473C6.88338 8.81139 7.11672 8.71973 7.40005 8.71973C7.68338 8.71973 7.91672 8.81139 8.10005 8.99473L12 12.8947L15.9 8.99473C16.0834 8.81139 16.3167 8.71973 16.6 8.71973C16.8834 8.71973 17.1167 8.81139 17.3 8.99473C17.4834 9.17806 17.575 9.41139 17.575 9.69473C17.575 9.97806 17.4834 10.2114 17.3 10.3947L12.7 14.9947C12.6 15.0947 12.4917 15.1656 12.375 15.2072C12.2584 15.2489 12.1334 15.2697 12 15.2697Z" fill="#E8EAED"/>
</svg>
